<svg version="1.1" viewBox="0.0 0.0 438.23884514435696 132.48031496062993" fill="none" stroke="none" stroke-linecap="square" stroke-miterlimit="10" xmlns:xlink="http://www.w3.org/1999/xlink" xmlns="http://www.w3.org/2000/svg"><clipPath id="p.0"><path d="m0 0l438.23883 0l0 132.48032l-438.23883 0l0 -132.48032z" clip-rule="nonzero"/></clipPath><g clip-path="url(#p.0)"><path fill="#000000" fill-opacity="0.0" d="m0 0l438.23883 0l0 132.48032l-438.23883 0z" fill-rule="evenodd"/><path fill="#0b5394" d="m55.10425 128.0105l-6.493881 -21.168976l0 0c-38.966343 -14.137375 -54.85254 -44.995197 -36.70104 -71.28919c18.1515 -26.293997 64.40028 -39.418972 106.846115 -30.321932c42.44583 9.097038 67.197525 37.438915 57.18254 65.47674c-10.014999 28.037819 -51.519096 46.595688 -95.88472 42.87327z" fill-rule="evenodd"/><path fill="#3d85c6" d="m17.693449 13.0236225l147.37007 0l0 88.314964l-147.37007 0z" fill-rule="evenodd"/><path fill="#000000" fill-opacity="0.0" d="m24.20735 2.3648293l448.62994 0l0 134.29922l-448.62994 0z" fill-rule="evenodd"/><path fill="#ffffff" d="m34.285473 84.164825l0 -56.875l19.921875 0q10.359379 0 15.703129 3.96875q5.359375 3.953125 5.359375 11.609375q0 4.1875 -2.15625 7.375q-2.140625 3.171875 -5.96875 4.65625q4.375 1.09375 6.890625 4.421875q2.515625 3.3125 2.515625 8.125q0 8.203125 -5.234375 12.421875q-5.234375 4.21875 -14.921879 4.296875l-22.109375 0zm11.71875 -24.765625l0 15.34375l10.046875 0q4.140625 0 6.453125 -1.96875q2.3281288 -1.96875 2.3281288 -5.453125q0 -7.8125 -8.078129 -7.921875l-10.75 0zm0 -8.28125l8.671875 0q8.875 -0.15625 8.875 -7.078125q0 -3.859375 -2.25 -5.5625q-2.25 -1.703125 -7.09375 -1.703125l-8.203125 0l0 14.34375zm51.80469 33.046875l-11.71875 0l0 -56.875l11.71875 0l0 56.875zm10.8515625 0l0 -56.875l17.5 0q7.5 0 13.421875 3.375q5.921875 3.375 9.234375 9.609375q3.328125 6.234375 3.328125 14.15625l0 2.625q0 7.921875 -3.265625 14.09375q-3.265625 6.171875 -9.203125 9.578125q-5.9375 3.390625 -13.390625 3.4375l-17.625 0zm11.71875 -47.390625l0 37.96875l5.671875 0q6.875 0 10.5 -4.484375q3.640625 -4.5 3.71875 -12.859375l0 -3.0q0 -8.671875 -3.59375 -13.140625q-3.59375 -4.484375 -10.515625 -4.484375l-5.78125 0z" fill-rule="nonzero"/><path fill="#0b5394" d="m221.40266 33.4617l-18.28125 0l0 50.703125l-7.46875 0l0 -50.703125l-18.234375 0l0 -6.171875l43.984375 0l0 6.171875zm39.843735 35.859375l-23.82811 0l-5.359375 14.84375l-7.734375 0l21.71875 -56.875l6.5625 0l21.76561 56.875l-7.703125 0l-5.421875 -14.84375zm-21.562485 -6.171875l19.32811 0l-9.687485 -26.609375l-9.640625 26.609375zm50.39061 21.015625l-7.5 0l0 -56.875l7.5 0l0 56.875zm53.007812 -50.703125l-18.28125 0l0 50.703125l-7.46875 0l0 -50.703125l-18.234375 0l0 -6.171875l43.984375 0l0 6.171875zm40.578125 24.40625l-24.640625 0l0 20.15625l28.625 0l0 6.140625l-36.125 0l0 -56.875l35.734375 0l0 6.171875l-28.234375 0l0 18.28125l24.640625 0l0 6.125zm30.078125 0.9375q-9.640625 -2.765625 -14.046875 -6.8125q-4.390625 -4.046875 -4.390625 -9.984375q0 -6.71875 5.375 -11.109375q5.375 -4.390625 13.96875 -4.390625q5.859375 0 10.4375 2.265625q4.59375 2.265625 7.109375 6.25q2.53125 3.984375 2.53125 8.703125l-7.546875 0q0 -5.15625 -3.28125 -8.09375q-3.28125 -2.953125 -9.25 -2.953125q-5.546875 0 -8.65625 2.4375q-3.109375 2.4375 -3.109375 6.78125q0 3.46875 2.953125 5.875q2.953125 2.40625 10.03125 4.40625q7.09375 1.984375 11.09375 4.390625q4.015625 2.390625 5.9375 5.59375q1.9375 3.203125 1.9375 7.546875q0 6.90625 -5.390625 11.078125q-5.390625 4.15625 -14.40625 4.15625q-5.859375 0 -10.9375 -2.25q-5.078125 -2.25 -7.84375 -6.15625q-2.75 -3.90625 -2.75 -8.859375l7.546875 0q0 5.15625 3.796875 8.140625q3.8125 2.984375 10.1875 2.984375q5.9375 0 9.09375 -2.421875q3.171875 -2.421875 3.171875 -6.59375q0 -4.1875 -2.9375 -6.46875q-2.921875 -2.28125 -10.625 -4.515625z" fill-rule="nonzero"/></g></svg>