<svg version="1.1" viewBox="0.0 0.0 500.0 500.0" fill="none" stroke="none" stroke-linecap="square" stroke-miterlimit="10" xmlns:xlink="http://www.w3.org/1999/xlink" xmlns="http://www.w3.org/2000/svg"><clipPath id="p.0"><path d="m0 0l500.0 0l0 500.0l-500.0 0l0 -500.0z" clip-rule="nonzero"/></clipPath><g clip-path="url(#p.0)"><path fill="#000000" fill-opacity="0.0" d="m0 0l500.0 0l0 500.0l-500.0 0z" fill-rule="evenodd"/><path fill="#0b5394" d="m165.80322 351.36877l-15.555878 -50.713623l0 0c-93.34259 -33.868286 -131.39745 -107.79306 -87.91612 -170.78445c43.48132 -62.991394 154.26875 -94.43433 255.94633 -72.640945c101.67758 21.793388 160.96945 89.69081 136.97885 156.85982c-23.99057 67.16901 -123.41226 111.62729 -229.68864 102.709625z" fill-rule="evenodd"/><path fill="#3d85c6" d="m76.187416 75.89803l353.03937 0l0 211.55905l-353.03937 0z" fill-rule="evenodd"/><path fill="#000000" fill-opacity="0.0" d="m91.79151 42.36483l353.03937 0l0 286.61417l-353.03937 0z" fill-rule="evenodd"/><path fill="#ffffff" d="m109.49464 252.16481l0 -142.1875l49.796883 0q25.875 0 39.25 9.921875q13.390625 9.906242 13.390625 29.046867q0 10.4375 -5.375 18.40625q-5.375 7.953125 -14.9375 11.671875q10.9375 2.734375 17.234375 11.03125q6.296875 8.296875 6.296875 20.3125q0 20.5 -13.09375 31.046875q-13.078125 10.546875 -37.296875 10.75l-55.265633 0zm29.296883 -61.921875l0 38.390625l25.09375 0q10.34375 0 16.15625 -4.9375q5.8125 -4.9375 5.8125 -13.625q0 -19.53125 -20.21875 -19.828125l-26.84375 0zm0 -20.703125l21.671875 0q22.171875 -0.390625 22.171875 -17.671875q0 -9.671875 -5.625 -13.90625q-5.609375 -4.25 -17.71875 -4.25l-20.5 0l0 35.828125zm129.48045 82.625l-29.29686 0l0 -142.1875l29.29686 0l0 142.1875zm27.160156 0l0 -142.1875l43.75 0q18.75 0 33.53125 8.453125q14.796875 8.4375 23.09375 24.015617q8.3125 15.578125 8.3125 35.40625l0 6.53125q0 19.828125 -8.15625 35.265625q-8.15625 15.421875 -23.0 23.921875q-14.84375 8.5 -33.5 8.59375l-44.03125 0zm29.296875 -118.453125l0 94.921875l14.15625 0q17.1875 0 26.265625 -11.234375q9.078125 -11.234375 9.28125 -32.125l0 -7.53125q0 -21.671875 -8.984375 -32.84375q-8.984375 -11.1875 -26.265625 -11.1875l-14.453125 0z" fill-rule="nonzero"/><path fill="#000000" fill-opacity="0.0" d="m110.83202 347.5328l314.96063 0l0 114.897644l-314.96063 0z" fill-rule="evenodd"/><path fill="#0b5394" d="m165.73827 382.62967l-18.28125 0l0 50.703125l-7.46875 0l0 -50.703125l-18.234367 0l0 -6.171875l43.984367 0l0 6.171875zm39.84375 35.859375l-23.828125 0l-5.359375 14.84375l-7.734375 0l21.71875 -56.875l6.5625 0l21.765625 56.875l-7.703125 0l-5.421875 -14.84375zm-21.5625 -6.171875l19.328125 0l-9.6875 -26.609375l-9.640625 26.609375zm50.390625 21.015625l-7.5 0l0 -56.875l7.5 0l0 56.875zm53.007828 -50.703125l-18.28125 0l0 50.703125l-7.46875 0l0 -50.703125l-18.23439 0l0 -6.171875l43.98439 0l0 6.171875zm40.578125 24.40625l-24.640625 0l0 20.15625l28.625 0l0 6.140625l-36.125 0l0 -56.875l35.734375 0l0 6.171875l-28.234375 0l0 18.28125l24.640625 0l0 6.125zm30.078125 0.9375q-9.640625 -2.765625 -14.046875 -6.8125q-4.390625 -4.046875 -4.390625 -9.984375q0 -6.71875 5.375 -11.109375q5.375 -4.390625 13.96875 -4.390625q5.859375 0 10.4375 2.265625q4.59375 2.265625 7.109375 6.25q2.53125 3.984375 2.53125 8.703125l-7.546875 0q0 -5.15625 -3.28125 -8.09375q-3.28125 -2.953125 -9.25 -2.953125q-5.546875 0 -8.65625 2.4375q-3.109375 2.4375 -3.109375 6.78125q0 3.46875 2.953125 5.875q2.953125 2.40625 10.03125 4.40625q7.09375 1.984375 11.09375 4.390625q4.015625 2.390625 5.9375 5.59375q1.9375 3.203125 1.9375 7.546875q0 6.90625 -5.390625 11.078125q-5.390625 4.15625 -14.40625 4.15625q-5.859375 0 -10.9375 -2.25q-5.078125 -2.25 -7.84375 -6.15625q-2.75 -3.90625 -2.75 -8.859375l7.546875 0q0 5.15625 3.796875 8.140625q3.8125 2.984375 10.1875 2.984375q5.9375 0 9.09375 -2.421875q3.171875 -2.421875 3.171875 -6.59375q0 -4.1875 -2.9375 -6.46875q-2.921875 -2.28125 -10.625 -4.515625z" fill-rule="nonzero"/></g></svg>