<svg xmlns="http://www.w3.org/2000/svg" width="393" height="226" viewBox="0 0 393 226">
  <g fill="none">
    <path fill="#005299" d="M92.7223673,121.07 C96.0343839,121.07 98.9983543,121.897992 101.614367,123.554 C104.23038,125.210008 106.29436,127.585985 107.806367,130.682 C109.318375,133.778015 110.074367,137.437979 110.074367,141.662 C110.074367,145.838021 109.318375,149.485984 107.806367,152.606 C106.29436,155.726016 104.23038,158.113992 101.614367,159.77 C98.9983543,161.426008 96.0343839,162.254 92.7223673,162.254 C89.650352,162.254 87.0103784,161.558007 84.8023673,160.166 C82.5943563,158.773993 80.9863724,156.878012 79.9783673,154.478 L79.9783673,161.75 L67.6663673,161.75 L67.6663673,108.47 L79.9783673,108.47 L79.9783673,128.846 C80.9863724,126.445988 82.5943563,124.550007 84.8023673,123.158 C87.0103784,121.765993 89.650352,121.07 92.7223673,121.07 Z M88.7623673,131.87 C86.1703544,131.87 84.0463756,132.745991 82.3903673,134.498 C80.7343591,136.250009 79.9063673,138.637985 79.9063673,141.662 C79.9063673,144.638015 80.7343591,147.013991 82.3903673,148.79 C84.0463756,150.566009 86.1703544,151.454 88.7623673,151.454 C91.4023805,151.454 93.5263593,150.590009 95.1343673,148.862 C96.7423754,147.133991 97.5463673,144.734015 97.5463673,141.662 C97.5463673,138.589985 96.7423754,136.190009 95.1343673,134.462 C93.5263593,132.733991 91.4023805,131.87 88.7623673,131.87 Z M115.330367,110.27 C115.330367,108.397991 116.002361,106.850006 117.346367,105.626 C118.690374,104.401994 120.466356,103.79 122.674367,103.79 C124.882378,103.79 126.658361,104.401994 128.002367,105.626 C129.346374,106.850006 130.018367,108.397991 130.018367,110.27 C130.018367,112.094009 129.346374,113.617994 128.002367,114.842 C126.658361,116.066006 124.882378,116.678 122.674367,116.678 C120.466356,116.678 118.690374,116.066006 117.346367,114.842 C116.002361,113.617994 115.330367,112.094009 115.330367,110.27 Z M128.794367,121.574 L128.794367,161.75 L116.482367,161.75 L116.482367,121.574 L128.794367,121.574 Z M152.554367,121.07 C155.626383,121.07 158.266356,121.765993 160.474367,123.158 C162.682378,124.550007 164.290362,126.445988 165.298367,128.846 L165.298367,108.47 L177.610367,108.47 L177.610367,161.75 L165.298367,161.75 L165.298367,154.478 C164.290362,156.878012 162.682378,158.773993 160.474367,160.166 C158.266356,161.558007 155.626383,162.254 152.554367,162.254 C149.242351,162.254 146.27838,161.426008 143.662367,159.77 C141.046354,158.113992 138.982375,155.726016 137.470367,152.606 C135.95836,149.485984 135.202367,145.838021 135.202367,141.662 C135.202367,137.437979 135.95836,133.778015 137.470367,130.682 C138.982375,127.585985 141.046354,125.210008 143.662367,123.554 C146.27838,121.897992 149.242351,121.07 152.554367,121.07 Z M156.514367,131.87 C153.874354,131.87 151.750375,132.733991 150.142367,134.462 C148.534359,136.190009 147.730367,138.589985 147.730367,141.662 C147.730367,144.734015 148.534359,147.133991 150.142367,148.862 C151.750375,150.590009 153.874354,151.454 156.514367,151.454 C159.10638,151.454 161.230359,150.566009 162.886367,148.79 C164.542376,147.013991 165.370367,144.638015 165.370367,141.662 C165.370367,138.637985 164.542376,136.250009 162.886367,134.498 C161.230359,132.745991 159.10638,131.87 156.514367,131.87 Z"/>
    <path fill="#1B85CC" d="M208.418367 151.166L208.418367 161.75 202.874367 161.75C198.170344 161.75 194.51038 160.586012 191.894367 158.258 189.278354 155.929988 187.970367 152.078027 187.970367 146.702L187.970367 131.942 182.570367 131.942 182.570367 121.574 187.970367 121.574 187.970367 111.71 200.282367 111.71 200.282367 121.574 208.346367 121.574 208.346367 131.942 200.282367 131.942 200.282367 146.918C200.282367 148.502008 200.606364 149.605997 201.254367 150.23 201.902371 150.854003 202.99436 151.166 204.530367 151.166L208.418367 151.166zM230.594367 121.07C233.666383 121.07 236.306356 121.765993 238.514367 123.158 240.722378 124.550007 242.354362 126.445988 243.410367 128.846L243.410367 121.574 255.650367 121.574 255.650367 161.75 243.410367 161.75 243.410367 154.478C242.354362 156.878012 240.722378 158.773993 238.514367 160.166 236.306356 161.558007 233.666383 162.254 230.594367 162.254 227.282351 162.254 224.31838 161.426008 221.702367 159.77 219.086354 158.113992 217.022375 155.726016 215.510367 152.606 213.99836 149.485984 213.242367 145.838021 213.242367 141.662 213.242367 137.437979 213.99836 133.778015 215.510367 130.682 217.022375 127.585985 219.086354 125.210008 221.702367 123.554 224.31838 121.897992 227.282351 121.07 230.594367 121.07zM234.554367 131.87C231.914354 131.87 229.790375 132.733991 228.182367 134.462 226.574359 136.190009 225.770367 138.589985 225.770367 141.662 225.770367 144.734015 226.574359 147.133991 228.182367 148.862 229.790375 150.590009 231.914354 151.454 234.554367 151.454 237.14638 151.454 239.270359 150.566009 240.926367 148.79 242.582376 147.013991 243.410367 144.638015 243.410367 141.662 243.410367 138.637985 242.582376 136.250009 240.926367 134.498 239.270359 132.745991 237.14638 131.87 234.554367 131.87zM262.994367 110.27C262.994367 108.397991 263.666361 106.850006 265.010367 105.626 266.354374 104.401994 268.130356 103.79 270.338367 103.79 272.546378 103.79 274.322361 104.401994 275.666367 105.626 277.010374 106.850006 277.682367 108.397991 277.682367 110.27 277.682367 112.094009 277.010374 113.617994 275.666367 114.842 274.322361 116.066006 272.546378 116.678 270.338367 116.678 268.130356 116.678 266.354374 116.066006 265.010367 114.842 263.666361 113.617994 262.994367 112.094009 262.994367 110.27zM276.458367 121.574L276.458367 161.75 264.146367 161.75 264.146367 121.574 276.458367 121.574zM307.706367 151.166L307.706367 161.75 302.162367 161.75C297.458344 161.75 293.79838 160.586012 291.182367 158.258 288.566354 155.929988 287.258367 152.078027 287.258367 146.702L287.258367 131.942 281.858367 131.942 281.858367 121.574 287.258367 121.574 287.258367 111.71 299.570367 111.71 299.570367 121.574 307.634367 121.574 307.634367 131.942 299.570367 131.942 299.570367 146.918C299.570367 148.502008 299.894364 149.605997 300.542367 150.23 301.190371 150.854003 302.28236 151.166 303.818367 151.166L307.706367 151.166zM352.778367 140.582C352.778367 141.590005 352.658369 142.693994 352.418367 143.894L324.554367 143.894C324.698368 146.918015 325.46636 149.089993 326.858367 150.41 328.250374 151.730007 330.026357 152.39 332.186367 152.39 334.010376 152.39 335.522361 151.934005 336.722367 151.022 337.922373 150.109995 338.714365 148.934007 339.098367 147.494L352.130367 147.494C351.602365 150.326014 350.450376 152.857989 348.674367 155.09 346.898358 157.322011 344.642381 159.073994 341.906367 160.346 339.170354 161.618006 336.122384 162.254 332.762367 162.254 328.826348 162.254 325.334383 161.426008 322.286367 159.77 319.238352 158.113992 316.850376 155.726016 315.122367 152.606 313.394359 149.485984 312.530367 145.838021 312.530367 141.662 312.530367 137.437979 313.382359 133.778015 315.086367 130.682 316.790376 127.585985 319.178352 125.210008 322.250367 123.554 325.322383 121.897992 328.826348 121.07 332.762367 121.07 336.746387 121.07 340.250352 121.885992 343.274367 123.518 346.298382 125.150008 348.638359 127.441985 350.294367 130.394 351.950376 133.346015 352.778367 136.741981 352.778367 140.582zM340.322367 138.71C340.370368 136.069987 339.662375 134.090007 338.198367 132.77 336.73436 131.449993 334.922378 130.79 332.762367 130.79 330.506356 130.79 328.634375 131.461993 327.146367 132.806 325.65836 134.150007 324.818368 136.117987 324.626367 138.71L340.322367 138.71zM373.802367 121.07C378.890393 121.07 382.958352 122.341987 386.006367 124.886 389.054383 127.430013 390.962364 130.789979 391.730367 134.966L380.210367 134.966C379.874366 133.333992 379.118373 132.050005 377.942367 131.114 376.766361 130.177995 375.290376 129.71 373.514367 129.71 372.12236 129.71 371.066371 130.009997 370.346367 130.61 369.626364 131.210003 369.266367 132.061994 369.266367 133.166 369.266367 134.414006 369.926361 135.349997 371.246367 135.974 372.566374 136.598003 374.642353 137.221997 377.474367 137.846 380.546383 138.566004 383.066358 139.297996 385.034367 140.042 387.002377 140.786004 388.70636 141.997992 390.146367 143.678 391.586375 145.358008 392.306367 147.613986 392.306367 150.446 392.306367 152.750012 391.682374 154.789991 390.434367 156.566 389.186361 158.342009 387.386379 159.733995 385.034367 160.742 382.682356 161.750005 379.898383 162.254 376.682367 162.254 371.25834 162.254 366.914384 161.054012 363.650367 158.654 360.386351 156.253988 358.394371 152.822022 357.674367 148.358L369.554367 148.358C369.746368 150.086009 370.478361 151.405995 371.750367 152.318 373.022374 153.230005 374.666357 153.686 376.682367 153.686 378.074374 153.686 379.130364 153.362003 379.850367 152.714 380.570371 152.065997 380.930367 151.214005 380.930367 150.158 380.930367 148.765993 380.270374 147.770003 378.950367 147.17 377.630361 146.569997 375.482382 145.934003 372.506367 145.262 369.530352 144.637997 367.082377 143.966004 365.162367 143.246 363.242358 142.525996 361.586374 141.362008 360.194367 139.754 358.80236 138.145992 358.106367 135.950014 358.106367 133.166 358.106367 129.565982 359.474354 126.650011 362.210367 124.418 364.946381 122.185989 368.810342 121.07 373.802367 121.07zM178.366605 168.750002C173.78856 207.726211 154.115358 225.75 116.418367 225.75 74.4183673 225.75 57.9183673 215.25 42.9183673 197.25 27.9183673 180.75 11.4183673 141.75 9.91836735 140.25 9.91836735 138.75-3.58163265 117.75.918367347 102.75 2.41836735 96.75 5.41836735 92.25 11.4183673 89.25 14.4183673 87.75 18.9183673 86.25 21.9183673 86.25 32.4183673 86.25 39.9183673 93.75 44.4183673 98.25L44.4183673 41.25C44.4183673 41.25 44.4183673 29.25 51.9183673 21.75 56.4183673 17.25 60.9183673 14.25 68.4183673 14.25 71.4183673 14.25 74.4183673 15.75 77.4183673 15.75 77.4183673 12.75 80.4183673 9.75 83.4183673 6.75 90.9183673-2.25 105.918367-2.25 113.418367 6.75 114.918367 9.75 116.418367 11.25 116.418367 14.25 119.418367 14.25 122.418367 12.75 126.918367 12.75 134.418367 12.75 140.418367 15.75 143.418367 18.75 147.918367 23.25 149.418367 27.75 149.418367 32.25 156.918367 29.25 165.918367 30.75 171.918367 36.75 180.918367 47.25 179.418367 65.25 179.418367 66.75L179.418367 102.75 164.418367 102.75 164.418367 60.75C164.418367 60.75 164.418367 45.75 156.918367 45.75 149.418367 45.75 149.418367 53.25 149.418367 54.75L149.418367 90.75C149.418367 95.25 146.418367 98.25 141.918367 98.25 137.418367 98.25 134.418367 95.25 134.418367 90.75L134.418367 41.25C134.418367 41.25 135.918367 27.75 126.918367 27.75 119.418367 27.75 119.418367 33.75 119.418367 33.75L119.418367 90.75C119.418367 95.25 116.418367 98.25 111.918367 98.25 107.418367 98.25 104.418367 95.25 104.418367 90.75L104.418367 30.75C104.418367 23.25 104.418367 15.75 96.9183673 15.75 87.9183673 15.75 89.4183673 26.25 89.4183673 30.75L89.4183673 90.75C89.4183673 95.25 86.4183673 98.25 81.9183673 98.25 77.4183673 98.25 74.4183673 95.25 74.4183673 90.75L74.4183673 41.25C74.4183673 33.75 72.9183673 29.25 66.9183673 29.25 59.4183673 29.25 59.4183673 38.25 59.4183673 44.25L59.4183673 122.25C59.4183673 125.25 57.9183673 128.25 51.9183673 128.25 48.9183673 129.75 44.4183673 128.25 42.9183673 125.25L33.9183673 111.75C32.4183673 108.75 26.4183673 101.25 20.4183673 101.25 20.4183673 101.25 18.9183673 102.75 17.4183673 102.75 15.9183673 104.25 14.4183673 105.75 14.4183673 107.25 12.9183673 113.25 18.9183673 126.75 23.4183673 131.25 23.4183673 132.75 41.4183673 171.75 54.9183673 186.75 66.9183673 203.25 80.4183673 210.75 116.418367 210.75 140.838636 210.75 158.651154 203.040957 163.250415 168.75L178.36661 168.75z"/>
  </g>
</svg>
